<svg width="58" height="64" viewBox="0 0 58 64" fill="none" xmlns="http://www.w3.org/2000/svg">
<path d="M24.839 1.11492C27.4138 -0.371639 30.5861 -0.371639 33.1609 1.11492L53.6668 12.954C56.2416 14.4405 57.8277 17.1878 57.8277 20.1609V43.8391C57.8277 46.8122 56.2416 49.5595 53.6668 51.046L33.1609 62.8851C30.5861 64.3716 27.4138 64.3716 24.839 62.8851L4.33316 51.046C1.75838 49.5595 0.172241 46.8122 0.172241 43.8391V20.1609C0.172241 17.1878 1.75838 14.4405 4.33317 12.954L24.839 1.11492Z" fill="#171717"/>
<path fill-rule="evenodd" clip-rule="evenodd" d="M52.6265 14.7557L32.1207 2.91665C30.1896 1.80173 27.8104 1.80173 25.8793 2.91665L5.3734 14.7557C3.4423 15.8706 2.2527 17.9311 2.2527 20.1609V43.8391C2.2527 46.0689 3.4423 48.1294 5.3734 49.2443L25.8793 61.0834C27.8104 62.1983 30.1896 62.1983 32.1207 61.0834L52.6265 49.2443C54.5576 48.1294 55.7472 46.0689 55.7472 43.8391V20.1609C55.7472 17.9311 54.5576 15.8706 52.6265 14.7557ZM33.1609 1.11492C30.5861 -0.371639 27.4138 -0.371639 24.839 1.11492L4.33317 12.954C1.75838 14.4405 0.172241 17.1878 0.172241 20.1609V43.8391C0.172241 46.8122 1.75838 49.5595 4.33316 51.046L24.839 62.8851C27.4138 64.3716 30.5861 64.3716 33.1609 62.8851L53.6668 51.046C56.2416 49.5595 57.8277 46.8122 57.8277 43.8391V20.1609C57.8277 17.1878 56.2416 14.4405 53.6668 12.954L33.1609 1.11492Z" fill="#FAF5EA"/>
<path fill-rule="evenodd" clip-rule="evenodd" d="M28.9752 19.9552C31.3941 19.9552 33.3551 17.9942 33.3551 15.5753C33.3551 13.1563 31.3941 11.1954 28.9752 11.1954C26.5562 11.1954 24.5953 13.1563 24.5953 15.5753C24.5953 17.9942 26.5562 19.9552 28.9752 19.9552ZM28.9752 17.2178C29.8823 17.2178 30.6176 16.4824 30.6176 15.5753C30.6176 14.6682 29.8823 13.9328 28.9752 13.9328C28.0681 13.9328 27.3327 14.6682 27.3327 15.5753C27.3327 16.4824 28.0681 17.2178 28.9752 17.2178Z" fill="#FAF5EA"/>
<path fill-rule="evenodd" clip-rule="evenodd" d="M28.9752 36.3795C31.3941 36.3795 33.3551 34.4185 33.3551 31.9996C33.3551 29.5806 31.3941 27.6196 28.9752 27.6196C26.5562 27.6196 24.5953 29.5806 24.5953 31.9996C24.5953 34.4185 26.5562 36.3795 28.9752 36.3795ZM28.9752 33.642C29.8823 33.642 30.6176 32.9067 30.6176 31.9996C30.6176 31.0925 29.8823 30.3571 28.9752 30.3571C28.0681 30.3571 27.3327 31.0925 27.3327 31.9996C27.3327 32.9067 28.0681 33.642 28.9752 33.642Z" fill="#FAF5EA"/>
<path fill-rule="evenodd" clip-rule="evenodd" d="M28.9752 52.8046C31.3941 52.8046 33.3551 50.8436 33.3551 48.4246C33.3551 46.0057 31.3941 44.0447 28.9752 44.0447C26.5562 44.0447 24.5953 46.0057 24.5953 48.4246C24.5953 50.8436 26.5562 52.8046 28.9752 52.8046ZM28.9752 50.0671C29.8823 50.0671 30.6176 49.3318 30.6176 48.4246C30.6176 47.5175 29.8823 46.7822 28.9752 46.7822C28.0681 46.7822 27.3327 47.5175 27.3327 48.4246C27.3327 49.3318 28.0681 50.0671 28.9752 50.0671Z" fill="#FAF5EA"/>
<path fill-rule="evenodd" clip-rule="evenodd" d="M17.4229 28.3613C18.9832 27.6912 20.0759 26.1407 20.0759 24.335C20.0759 21.916 18.1149 19.9551 15.696 19.9551C13.277 19.9551 11.3161 21.916 11.3161 24.335C11.3161 26.1068 12.3681 27.6329 13.8817 28.3226H13.8412C13.8412 28.3226 14.5714 28.6069 14.5714 30.1861C14.5714 30.9134 14.5752 31.3551 14.5793 31.8317C14.5841 32.39 14.5893 32.9963 14.5893 34.1659C14.5893 34.9819 13.5225 35.8399 13.5225 35.8399H13.5611C12.2216 36.5891 11.3161 38.0214 11.3161 39.6652C11.3161 42.0841 13.277 44.0451 15.696 44.0451C18.1149 44.0451 20.0759 42.0841 20.0759 39.6652C20.0759 38.0214 19.1703 36.5891 17.8309 35.8399H17.8703C17.8703 35.8399 16.8838 35.0092 16.8838 34.1659V30.1861C16.8838 28.9375 17.279 28.4848 17.4229 28.3613ZM15.696 25.9774C16.6031 25.9774 17.3384 25.2421 17.3384 24.335C17.3384 23.4279 16.6031 22.6925 15.696 22.6925C14.7889 22.6925 14.0535 23.4279 14.0535 24.335C14.0535 25.2421 14.7889 25.9774 15.696 25.9774ZM15.696 41.3076C16.6031 41.3076 17.3384 40.5723 17.3384 39.6652C17.3384 38.7581 16.6031 38.0227 15.696 38.0227C14.7889 38.0227 14.0535 38.7581 14.0535 39.6652C14.0535 40.5723 14.7889 41.3076 15.696 41.3076Z" fill="#FAF5EA"/>
<path fill-rule="evenodd" clip-rule="evenodd" d="M43.6969 28.3647C45.2615 27.6965 46.358 26.1438 46.358 24.335C46.358 21.916 44.397 19.9551 41.9781 19.9551C39.5591 19.9551 37.5981 21.916 37.5981 24.335C37.5981 26.1068 38.6502 27.6329 40.1638 28.3226H40.1192C40.1192 28.3226 40.8494 28.6069 40.8494 30.1861C40.8494 30.9134 40.8532 31.3551 40.8573 31.8317C40.8621 32.39 40.8673 32.9963 40.8673 34.1659C40.8673 34.9819 39.8005 35.8399 39.8005 35.8399H39.8431C38.5037 36.5891 37.5981 38.0214 37.5981 39.6652C37.5981 42.0841 39.5591 44.0451 41.9781 44.0451C44.397 44.0451 46.358 42.0841 46.358 39.6652C46.358 38.0214 45.4524 36.5891 44.113 35.8399H44.1484C44.1484 35.8399 43.1618 35.0092 43.1618 34.1659V30.1861C43.1618 28.9489 43.5499 28.4931 43.6969 28.3647ZM41.9781 25.9774C42.8852 25.9774 43.6205 25.2421 43.6205 24.335C43.6205 23.4279 42.8852 22.6925 41.9781 22.6925C41.071 22.6925 40.3356 23.4279 40.3356 24.335C40.3356 25.2421 41.071 25.9774 41.9781 25.9774ZM41.9781 41.3076C42.8852 41.3076 43.6205 40.5723 43.6205 39.6652C43.6205 38.7581 42.8852 38.0227 41.9781 38.0227C41.071 38.0227 40.3356 38.7581 40.3356 39.6652C40.3356 40.5723 41.071 41.3076 41.9781 41.3076Z" fill="#FAF5EA"/>
</svg>
